<svg width="49" height="40" viewBox="0 0 49 40" fill="none" xmlns="http://www.w3.org/2000/svg">
<path d="M1.95563 0.759998H15.2356V4.6H7.71563V7.928H14.0516V11.384H7.71563V15.096H15.2036V19H1.95563V0.759998ZM31.5759 18.392C30.7865 18.7333 29.8692 18.9787 28.8239 19.128C27.7785 19.2773 26.8079 19.352 25.9119 19.352C23.0105 19.352 20.7385 18.5947 19.0959 17.08C17.4532 15.5653 16.6319 13.24 16.6319 10.104C16.6319 6.904 17.4959 4.51467 19.2239 2.936C20.9519 1.336 23.3839 0.535999 26.5199 0.535999C28.0132 0.535999 29.5705 0.738666 31.1919 1.144C31.1919 1.57067 31.1492 2.21067 31.0639 3.064C30.9785 3.896 30.8932 4.48267 30.8079 4.824H28.7919C27.3199 4.824 26.1572 4.856 25.3039 4.92C24.4719 4.96267 23.9705 5.05867 23.7999 5.208C23.4799 5.50667 23.2345 6.11467 23.0639 7.032C22.8932 7.928 22.8079 8.792 22.8079 9.624C22.8079 11.0747 22.9892 12.1947 23.3519 12.984C23.7145 13.752 24.1732 14.264 24.7279 14.52C25.2612 14.776 26.1465 14.904 27.3839 14.904C28.3652 14.904 29.6452 14.8187 31.2239 14.648L31.5759 18.392ZM47.9821 18.392C47.1928 18.7333 46.2755 18.9787 45.2301 19.128C44.1848 19.2773 43.2141 19.352 42.3181 19.352C39.4168 19.352 37.1448 18.5947 35.5021 17.08C33.8595 15.5653 33.0381 13.24 33.0381 10.104C33.0381 6.904 33.9021 4.51467 35.6301 2.936C37.3581 1.336 39.7901 0.535999 42.9261 0.535999C44.4195 0.535999 45.9768 0.738666 47.5981 1.144C47.5981 1.57067 47.5555 2.21067 47.4701 3.064C47.3848 3.896 47.2995 4.48267 47.2141 4.824H45.1981C43.7261 4.824 42.5635 4.856 41.7101 4.92C40.8781 4.96267 40.3768 5.05867 40.2061 5.208C39.8861 5.50667 39.6408 6.11467 39.4701 7.032C39.2995 7.928 39.2141 8.792 39.2141 9.624C39.2141 11.0747 39.3955 12.1947 39.7581 12.984C40.1208 13.752 40.5795 14.264 41.1341 14.52C41.6675 14.776 42.5528 14.904 43.7901 14.904C44.7715 14.904 46.0515 14.8187 47.6301 14.648L47.9821 18.392ZM10.1098 29.688C11.6244 29.7947 12.7124 30.2213 13.3738 30.968C14.0351 31.7147 14.3658 32.6427 14.3658 33.752C14.3658 35.352 13.7684 36.696 12.5738 37.784C11.3791 38.8507 9.46975 39.384 6.84575 39.384C5.07508 39.384 3.10175 39.2133 0.92575 38.872L1.56575 35.352C3.48575 35.4373 4.74442 35.48 5.34175 35.48C6.51508 35.48 7.36842 35.3307 7.90175 35.032C8.45642 34.7333 8.73375 34.1467 8.73375 33.272C8.73375 32.6533 8.53108 32.1947 8.12575 31.896C7.74175 31.576 7.18708 31.3733 6.46175 31.288C5.73642 31.2027 4.70175 31.16 3.35775 31.16V28.184C4.70175 28.184 5.71508 28.152 6.39775 28.088C7.10175 28.0027 7.63508 27.8213 7.99775 27.544C8.38175 27.2667 8.57375 26.8293 8.57375 26.232C8.57375 25.72 8.56308 25.3147 8.54175 25.016C8.52042 24.7173 8.44575 24.5253 8.31775 24.44C8.14708 24.3333 7.38975 24.28 6.04575 24.28C4.82975 24.28 3.34708 24.3227 1.59775 24.408L1.27775 21.016C3.60308 20.696 5.46975 20.536 6.87775 20.536C8.92575 20.536 10.6004 20.9307 11.9018 21.72C13.2244 22.5093 13.8858 23.7893 13.8858 25.56C13.8858 26.456 13.5871 27.3093 12.9898 28.12C12.4138 28.9093 11.4538 29.4 10.1098 29.592V29.688ZM25.7103 27.16C27.9503 27.16 29.4543 27.768 30.2223 28.984C31.0116 30.2 31.4062 31.5333 31.4062 32.984C31.4062 34.9467 30.7983 36.5147 29.5823 37.688C28.3876 38.84 26.5529 39.416 24.0783 39.416C21.3903 39.416 19.4276 38.6693 18.1903 37.176C16.9743 35.6827 16.3663 33.4213 16.3663 30.392C16.3663 27.1493 17.0703 24.7067 18.4783 23.064C19.8863 21.4213 21.8809 20.6 24.4623 20.6C25.5076 20.6 26.4889 20.6533 27.4063 20.76C28.3236 20.8667 29.0383 21.0053 29.5503 21.176L28.9423 24.568C27.7903 24.4827 26.9796 24.44 26.5103 24.44C24.9956 24.44 23.8436 24.7173 23.0543 25.272C22.2863 25.8053 21.8383 26.808 21.7103 28.28C22.3503 27.9173 23.0329 27.64 23.7583 27.448C24.4836 27.256 25.1343 27.16 25.7103 27.16ZM23.9503 35.48C25.4009 35.48 26.1263 34.6693 26.1263 33.048C26.1263 32.3013 25.9876 31.736 25.7103 31.352C25.5183 31.1387 24.9849 31.032 24.1103 31.032C23.3209 31.032 22.5636 31.1173 21.8383 31.288C21.7956 31.672 21.7743 31.9813 21.7743 32.216C21.7743 33.112 21.9556 33.88 22.3183 34.52C22.6809 35.16 23.2249 35.48 23.9503 35.48ZM42.4603 27.16C44.7003 27.16 46.2043 27.768 46.9723 28.984C47.7616 30.2 48.1562 31.5333 48.1562 32.984C48.1562 34.9467 47.5483 36.5147 46.3323 37.688C45.1376 38.84 43.3029 39.416 40.8283 39.416C38.1403 39.416 36.1776 38.6693 34.9403 37.176C33.7243 35.6827 33.1163 33.4213 33.1163 30.392C33.1163 27.1493 33.8203 24.7067 35.2283 23.064C36.6363 21.4213 38.6309 20.6 41.2123 20.6C42.2576 20.6 43.2389 20.6533 44.1563 20.76C45.0736 20.8667 45.7883 21.0053 46.3003 21.176L45.6923 24.568C44.5403 24.4827 43.7296 24.44 43.2603 24.44C41.7456 24.44 40.5936 24.7173 39.8043 25.272C39.0363 25.8053 38.5883 26.808 38.4603 28.28C39.1003 27.9173 39.7829 27.64 40.5083 27.448C41.2336 27.256 41.8843 27.16 42.4603 27.16ZM40.7003 35.48C42.1509 35.48 42.8763 34.6693 42.8763 33.048C42.8763 32.3013 42.7376 31.736 42.4603 31.352C42.2683 31.1387 41.7349 31.032 40.8603 31.032C40.0709 31.032 39.3136 31.1173 38.5883 31.288C38.5456 31.672 38.5243 31.9813 38.5243 32.216C38.5243 33.112 38.7056 33.88 39.0683 34.52C39.4309 35.16 39.9749 35.48 40.7003 35.48Z" fill="#F4F4F4"/>
</svg>
