<svg width="96" height="78" viewBox="0 0 96 78" fill="none" xmlns="http://www.w3.org/2000/svg">
<path d="M2.91125 0.519997H29.4713V8.2H14.4313V14.856H27.1033V21.768H14.4313V29.192H29.4073V37H2.91125V0.519997ZM62.1518 35.784C60.5731 36.4667 58.7384 36.9573 56.6478 37.256C54.5571 37.5547 52.6158 37.704 50.8238 37.704C45.0211 37.704 40.4771 36.1893 37.1918 33.16C33.9064 30.1307 32.2638 25.48 32.2638 19.208C32.2638 12.808 33.9918 8.02933 37.4478 4.872C40.9038 1.672 45.7678 0.0719986 52.0398 0.0719986C55.0264 0.0719986 58.1411 0.477332 61.3838 1.288C61.3838 2.14133 61.2984 3.42133 61.1278 5.128C60.9571 6.792 60.7864 7.96533 60.6158 8.648H56.5838C53.6398 8.648 51.3144 8.712 49.6078 8.84C47.9438 8.92533 46.9411 9.11733 46.5998 9.416C45.9598 10.0133 45.4691 11.2293 45.1278 13.064C44.7864 14.856 44.6158 16.584 44.6158 18.248C44.6158 21.1493 44.9784 23.3893 45.7038 24.968C46.4291 26.504 47.3464 27.528 48.4558 28.04C49.5224 28.552 51.2931 28.808 53.7678 28.808C55.7304 28.808 58.2904 28.6373 61.4478 28.296L62.1518 35.784ZM94.9643 35.784C93.3856 36.4667 91.5509 36.9573 89.4603 37.256C87.3696 37.5547 85.4283 37.704 83.6363 37.704C77.8336 37.704 73.2896 36.1893 70.0043 33.16C66.7189 30.1307 65.0763 25.48 65.0763 19.208C65.0763 12.808 66.8043 8.02933 70.2603 4.872C73.7163 1.672 78.5803 0.0719986 84.8523 0.0719986C87.8389 0.0719986 90.9536 0.477332 94.1963 1.288C94.1963 2.14133 94.1109 3.42133 93.9403 5.128C93.7696 6.792 93.5989 7.96533 93.4283 8.648H89.3963C86.4523 8.648 84.1269 8.712 82.4203 8.84C80.7563 8.92533 79.7536 9.11733 79.4123 9.416C78.7723 10.0133 78.2816 11.2293 77.9403 13.064C77.5989 14.856 77.4283 16.584 77.4283 18.248C77.4283 21.1493 77.7909 23.3893 78.5163 24.968C79.2416 26.504 80.1589 27.528 81.2683 28.04C82.3349 28.552 84.1056 28.808 86.5803 28.808C88.5429 28.808 91.1029 28.6373 94.2603 28.296L94.9643 35.784ZM19.2195 58.376C22.2488 58.5893 24.4248 59.4427 25.7475 60.936C27.0702 62.4293 27.7315 64.2853 27.7315 66.504C27.7315 69.704 26.5368 72.392 24.1475 74.568C21.7582 76.7013 17.9395 77.768 12.6915 77.768C9.15017 77.768 5.2035 77.4267 0.8515 76.744L2.1315 69.704C5.9715 69.8747 8.48883 69.96 9.6835 69.96C12.0302 69.96 13.7368 69.6613 14.8035 69.064C15.9128 68.4667 16.4675 67.2933 16.4675 65.544C16.4675 64.3067 16.0622 63.3893 15.2515 62.792C14.4835 62.152 13.3742 61.7467 11.9235 61.576C10.4728 61.4053 8.4035 61.32 5.7155 61.32V55.368C8.4035 55.368 10.4302 55.304 11.7955 55.176C13.2035 55.0053 14.2702 54.6427 14.9955 54.088C15.7635 53.5333 16.1475 52.6587 16.1475 51.464C16.1475 50.44 16.1262 49.6293 16.0835 49.032C16.0408 48.4347 15.8915 48.0507 15.6355 47.88C15.2942 47.6667 13.7795 47.56 11.0915 47.56C8.6595 47.56 5.69417 47.6453 2.1955 47.816L1.5555 41.032C6.20617 40.392 9.9395 40.072 12.7555 40.072C16.8515 40.072 20.2008 40.8613 22.8035 42.44C25.4488 44.0187 26.7715 46.5787 26.7715 50.12C26.7715 51.912 26.1742 53.6187 24.9795 55.24C23.8275 56.8187 21.9075 57.8 19.2195 58.184V58.376ZM50.4205 53.32C54.9005 53.32 57.9085 54.536 59.4445 56.968C61.0232 59.4 61.8125 62.0667 61.8125 64.968C61.8125 68.8933 60.5965 72.0293 58.1645 74.376C55.7752 76.68 52.1058 77.832 47.1565 77.832C41.7805 77.832 37.8552 76.3387 35.3805 73.352C32.9485 70.3653 31.7325 65.8427 31.7325 59.784C31.7325 53.2987 33.1405 48.4133 35.9565 45.128C38.7725 41.8427 42.7618 40.2 47.9245 40.2C50.0152 40.2 51.9778 40.3067 53.8125 40.52C55.6472 40.7333 57.0765 41.0107 58.1005 41.352L56.8845 48.136C54.5805 47.9653 52.9592 47.88 52.0205 47.88C48.9912 47.88 46.6872 48.4347 45.1085 49.544C43.5725 50.6107 42.6765 52.616 42.4205 55.56C43.7005 54.8347 45.0658 54.28 46.5165 53.896C47.9672 53.512 49.2685 53.32 50.4205 53.32ZM46.9005 69.96C49.8018 69.96 51.2525 68.3387 51.2525 65.096C51.2525 63.6027 50.9752 62.472 50.4205 61.704C50.0365 61.2773 48.9698 61.064 47.2205 61.064C45.6418 61.064 44.1272 61.2347 42.6765 61.576C42.5912 62.344 42.5485 62.9627 42.5485 63.432C42.5485 65.224 42.9112 66.76 43.6365 68.04C44.3618 69.32 45.4498 69.96 46.9005 69.96ZM83.9205 53.32C88.4005 53.32 91.4085 54.536 92.9445 56.968C94.5232 59.4 95.3125 62.0667 95.3125 64.968C95.3125 68.8933 94.0965 72.0293 91.6645 74.376C89.2752 76.68 85.6058 77.832 80.6565 77.832C75.2805 77.832 71.3552 76.3387 68.8805 73.352C66.4485 70.3653 65.2325 65.8427 65.2325 59.784C65.2325 53.2987 66.6405 48.4133 69.4565 45.128C72.2725 41.8427 76.2618 40.2 81.4245 40.2C83.5152 40.2 85.4778 40.3067 87.3125 40.52C89.1472 40.7333 90.5765 41.0107 91.6005 41.352L90.3845 48.136C88.0805 47.9653 86.4592 47.88 85.5205 47.88C82.4912 47.88 80.1872 48.4347 78.6085 49.544C77.0725 50.6107 76.1765 52.616 75.9205 55.56C77.2005 54.8347 78.5658 54.28 80.0165 53.896C81.4672 53.512 82.7685 53.32 83.9205 53.32ZM80.4005 69.96C83.3018 69.96 84.7525 68.3387 84.7525 65.096C84.7525 63.6027 84.4752 62.472 83.9205 61.704C83.5365 61.2773 82.4698 61.064 80.7205 61.064C79.1418 61.064 77.6272 61.2347 76.1765 61.576C76.0912 62.344 76.0485 62.9627 76.0485 63.432C76.0485 65.224 76.4112 66.76 77.1365 68.04C77.8618 69.32 78.9498 69.96 80.4005 69.96Z" fill="#F4F4F4"/>
</svg>
