<?xml version="1.0" encoding="UTF-8"?>
<svg width="20px" height="15px" viewBox="0 0 20 15" version="1.1" xmlns="http://www.w3.org/2000/svg" xmlns:xlink="http://www.w3.org/1999/xlink">
    <title>Icons / Filer@1.5x</title>
    <g id="Assets" stroke="none" stroke-width="1" fill="none" fill-rule="evenodd">
        <g id="3.4-|-Icons-/-Filer" fill="#BBBBBB" fill-rule="nonzero">
            <g id="Icons-/-Filer">
                <path d="M0,4.25 L0,2.75 L10.5805101,2.75015916 C10.9237855,1.17748844 12.3243842,0 14,0 C15.6756158,0 17.0762145,1.17748844 17.4194899,2.75015916 L20,2.75 L20,4.25 L17.4192733,4.25083217 C17.0756259,5.82300635 15.6752637,7 14,7 C12.3247363,7 10.9243741,5.82300635 10.5807267,4.25083217 L0,4.25 Z M14,1.5 C12.8954305,1.5 12,2.3954305 12,3.5 C12,4.6045695 12.8954305,5.5 14,5.5 C15.1045695,5.5 16,4.6045695 16,3.5 C16,2.3954305 15.1045695,1.5 14,1.5 Z" id="Oval"></path>
                <path d="M0,12.25 L0,10.75 L10.5805101,10.7501592 C10.9237855,9.17748844 12.3243842,8 14,8 C15.6756158,8 17.0762145,9.17748844 17.4194899,10.7501592 L20,10.75 L20,12.25 L17.4192733,12.2508322 C17.0756259,13.8230064 15.6752637,15 14,15 C12.3247363,15 10.9243741,13.8230064 10.5807267,12.2508322 L0,12.25 Z M14,9.5 C12.8954305,9.5 12,10.3954305 12,11.5 C12,12.6045695 12.8954305,13.5 14,13.5 C15.1045695,13.5 16,12.6045695 16,11.5 C16,10.3954305 15.1045695,9.5 14,9.5 Z" id="Oval" transform="translate(10, 11.5) scale(-1, -1) translate(-10, -11.5)"></path>
            </g>
        </g>
    </g>
</svg>