<?xml version="1.0" encoding="UTF-8"?>
<svg width="17px" height="16px" viewBox="0 0 17 16" version="1.1" xmlns="http://www.w3.org/2000/svg" xmlns:xlink="http://www.w3.org/1999/xlink">
    <title>Icons / Sort@1.5x</title>
    <g id="Assets" stroke="none" stroke-width="1" fill="none" fill-rule="evenodd">
        <g id="3.3-|-Icons-/-Sort" fill="#BBBBBB" fill-rule="nonzero">
            <g id="Icons-/-Sort">
                <polygon id="Combined-Shape" points="4 0 4.52240775 0.526339108 7.47759225 3.50376273 8 4.03010184 6.9551845 5.08278005 6.43277675 4.55644095 4.73879613 2.85004961 4.73879613 16 3.26120387 16 3.26120387 2.84905713 1.0448155 5.08278005 0 4.03010184 0.52240775 3.50376273 3.47759225 0.526339108"></polygon>
                <polygon id="Combined-Shape" transform="translate(13, 8) scale(1, -1) translate(-13, -8)" points="13 0 13.5224077 0.526339108 16.4775923 3.50376273 17 4.03010184 15.9551845 5.08278005 15.4327768 4.55644095 13.7387961 2.85004961 13.7387961 16 12.2612039 16 12.2612039 2.84905713 10.0448155 5.08278005 9 4.03010184 9.52240775 3.50376273 12.4775923 0.526339108"></polygon>
            </g>
        </g>
    </g>
</svg>